<?xml version="1.0" standalone="no"?><!DOCTYPE svg PUBLIC "-//W3C//DTD SVG 1.1//EN" "http://www.w3.org/Graphics/SVG/1.1/DTD/svg11.dtd"><svg t="1769193798691" class="icon" viewBox="0 0 1024 1024" version="1.1" xmlns="http://www.w3.org/2000/svg" p-id="15007" xmlns:xlink="http://www.w3.org/1999/xlink" width="200" height="200"><path d="M512 222.336a30.933333 30.933333 0 0 1-22.826667-9.173333 30.976 30.976 0 0 1-9.173333-22.826667V96.853333c0-9.045333 3.072-16.64 9.216-22.784A30.976 30.976 0 0 1 512 64.810667c9.088 0 16.64 3.072 22.784 9.216a30.933333 30.933333 0 0 1 9.216 22.784v93.525333c0 9.088-3.072 16.682667-9.216 22.826667a30.976 30.976 0 0 1-22.826667 9.173333z m204.629333 85.034667a29.098667 29.098667 0 0 1-8.661333-21.973334 34.346667 34.346667 0 0 1 9.045333-22.997333l65.109334-66.56a30.805333 30.805333 0 0 1 22.826666-9.898667c8.832 0 16.597333 3.328 23.296 9.984a30.464 30.464 0 0 1 9.173334 22.4 30.592 30.592 0 0 1-9.301334 22.485334l-66.56 66.56a30.592 30.592 0 0 1-22.442666 9.258666 30.592 30.592 0 0 1-22.485334-9.258666z m116.992 236.629333a30.976 30.976 0 0 1-22.784-9.216 30.976 30.976 0 0 1-9.216-22.784c0-9.088 3.072-16.682667 9.216-22.784a30.976 30.976 0 0 1 22.784-9.216h93.525334c9.088 0 16.682667 3.072 22.826666 9.216a30.976 30.976 0 0 1 9.173334 22.784c0 9.088-3.029333 16.682667-9.173334 22.784a30.976 30.976 0 0 1-22.826666 9.216h-93.525334zM512 959.146667a30.933333 30.933333 0 0 1-22.784-9.173334 30.976 30.976 0 0 1-9.173333-22.784v-93.141333c0-9.045333 3.072-16.64 9.216-22.784a30.976 30.976 0 0 1 22.784-9.216c9.088 0 16.64 3.072 22.784 9.216a30.976 30.976 0 0 1 9.216 22.784v93.141333c0 9.045333-3.072 16.64-9.216 22.784a30.976 30.976 0 0 1-22.826667 9.216zM262.826667 307.413333L195.84 241.877333a31.061333 31.061333 0 0 1-9.898667-23.168c0-9.045333 3.285333-16.64 9.898667-22.869333a31.658667 31.658667 0 0 1 22.784-8.832 29.866667 29.866667 0 0 1 22.186667 8.832l66.986666 66.986667a29.866667 29.866667 0 0 1 8.832 22.186666c0 8.96-2.944 16.426667-8.789333 22.357334a33.109333 33.109333 0 0 1-45.056 0zM782.506667 828.16l-65.493334-66.56a34.389333 34.389333 0 0 1-9.045333-23.04 29.269333 29.269333 0 0 1 8.576-21.930667 29.653333 29.653333 0 0 1 21.930667-8.832c8.789333 0 16.512 3.072 23.125333 9.258667l66.56 65.450667c6.314667 5.930667 9.386667 13.354667 9.173333 22.314666a34.986667 34.986667 0 0 1-9.301333 23.338667 31.573333 31.573333 0 0 1-23.296 9.898667 28.245333 28.245333 0 0 1-22.186667-9.898667zM96.853333 544a30.933333 30.933333 0 0 1-22.784-9.216 30.976 30.976 0 0 1-9.216-22.784c0-9.088 3.072-16.682667 9.216-22.784a30.933333 30.933333 0 0 1 22.784-9.216h93.525334c9.088 0 16.682667 3.072 22.826666 9.216A30.976 30.976 0 0 1 222.293333 512c0 9.088-3.072 16.682667-9.173333 22.784a31.018667 31.018667 0 0 1-22.826667 9.216H96.853333z m99.413334 284.16a32.341333 32.341333 0 0 1-9.045334-22.698667 29.525333 29.525333 0 0 1 8.661334-22.272l66.133333-66.133333a30.250667 30.250667 0 0 1 22.186667-9.301333 32.597333 32.597333 0 0 1 32.725333 32.298666 31.573333 31.573333 0 0 1-9.941333 23.04l-65.066667 65.024a32 32 0 0 1-23.424 9.941334 28.245333 28.245333 0 0 1-22.186667-9.898667z m315.861333-81.493333c-65.152 0-120.576-22.826667-166.229333-68.437334C300.16 632.661333 277.333333 577.28 277.333333 512.085333c0-65.152 22.784-120.576 68.394667-166.229333C391.381333 300.202667 446.72 277.333333 511.914667 277.333333c65.152 0 120.533333 22.784 166.229333 68.394667 45.653333 45.653333 68.522667 101.034667 68.522667 166.186667 0 65.152-22.826667 120.576-68.437334 166.229333-45.610667 45.653333-100.992 68.522667-166.144 68.522667zM512 682.666667c46.933333 0 87.082667-16.725333 120.533333-50.133334C665.941333 599.125333 682.666667 558.933333 682.666667 512s-16.725333-87.125333-50.133334-120.533333C599.04 358.058667 558.933333 341.333333 512 341.333333s-87.125333 16.725333-120.533333 50.133334C357.973333 424.874667 341.333333 465.066667 341.333333 512s16.682667 87.125333 50.133334 120.533333C424.874667 665.941333 465.066667 682.666667 512 682.666667z" p-id="15008" fill="#8a8a8a"></path></svg>